<svg width="40" height="40" viewBox="0 0 40 40" fill="none" xmlns="http://www.w3.org/2000/svg">
  <rect width="40" height="40" fill="#1E1E1E" />
  <path d="M20 0C31 0 40 9 40 20C40 31 31 40 20 40C9 40 0 31 0 20C0 9 9 0 20 0Z" fill="#E84D3D" />
  <path
    d="M14.7 9.1C16.4 10.8 18.1 12.4 19.7 14.1C19.9 14.3 20.1 14.3 20.3 14.1L25.3 9.1C25.4 9 25.5 9 25.6 9H30.6C30.8 9 31 9.2 31 9.4V17.6C31 17.8 30.8 18 30.6 18H25.9C25.7 18 25.5 17.8 25.5 17.6V14.5L20 19.8L14.5 25.3V22.4C14.5 22.2 14.3 22 14.1 22H9.4C9.2 22 9 22.2 9 22.4V30.6C9 30.8 9.2 31 9.4 31H14.4C14.5 31 14.6 30.9 14.7 30.9C16.4 29.2 18.1 27.599 19.7 25.9C19.9 25.7 20.1 25.7 20.3 25.9L25.3 30.9C25.4 31 25.5 31 25.6 31H30.6C30.8 31 31 30.8 31 30.6V22.4C31 22.2 30.8 22 30.6 22H25.9C25.7 22 25.5 22.2 25.5 22.4V25.3L20 19.8L14.5 14.5V17.6C14.5 17.8 14.3 18 14.1 18H9.4C9.2 18 9 17.8 9 17.6V9.4C9 9.2 9.2 9 9.4 9H14.4C14.5 9 14.6 9.1 14.7 9.1Z"
    fill="white" />
</svg>